<svg width="329" height="173" viewBox="0 0 329 173" fill="none" xmlns="http://www.w3.org/2000/svg">
<path d="M15.0104 2.48959C11.691 -0.829864 6.30905 -0.829864 2.98959 2.48959C-0.329864 5.80905 -0.329864 11.191 2.98959 14.5104L9 8.5L15.0104 2.48959ZM164.5 164L158.49 170.01C161.809 173.33 167.191 173.33 170.51 170.01L164.5 164ZM326.01 14.5104C329.33 11.191 329.33 5.80905 326.01 2.48959C322.691 -0.829864 317.309 -0.829864 313.99 2.48959L320 8.5L326.01 14.5104ZM9 8.5L2.98959 14.5104L158.49 170.01L164.5 164L170.51 157.99L15.0104 2.48959L9 8.5ZM164.5 164L170.51 170.01L248.26 92.2604L242.25 86.25L236.24 80.2396L158.49 157.99L164.5 164ZM242.25 86.25L248.26 92.2604L326.01 14.5104L320 8.5L313.99 2.48959L236.24 80.2396L242.25 86.25Z" fill="#0f0326"/>
</svg>
