<svg width="40" height="39" viewBox="0 0 40 39" fill="none" xmlns="http://www.w3.org/2000/svg">
<path d="M2 2L8.10923 2.06742L11.9957 27.159L34.1548 27.0812" stroke="#FFF9FA" stroke-width="3" stroke-linecap="round" stroke-linejoin="round"/>
<path d="M8.70508 5.93115L38 6.2164L35.6856 20.7019L10.9508 20.4166" stroke="#FFF9FA" stroke-width="3" stroke-linecap="round" stroke-linejoin="round"/>
<path d="M15.5 33.5C16.8807 33.5 18 34.6193 18 36C18 37.3807 16.8807 38.5 15.5 38.5C14.1193 38.5 13 37.3807 13 36C13 34.6193 14.1193 33.5 15.5 33.5Z" fill="#FFF9FA" stroke="#FFF9FA"/>
<path d="M31.25 33.5C32.6307 33.5 33.75 34.6193 33.75 36C33.75 37.3807 32.6307 38.5 31.25 38.5C29.8693 38.5 28.75 37.3807 28.75 36C28.75 34.6193 29.8693 33.5 31.25 33.5Z" fill="#FFF9FA" stroke="#FFF9FA"/>
</svg>
