<svg width="128" height="128" viewBox="0 0 128 128" fill="none" xmlns="http://www.w3.org/2000/svg">
<rect width="128" height="128" fill="white"/>
<g clip-path="url(#clip0_1_2)">
<path d="M78.4021 62.018L76.4887 59.9832C75.5226 58.9519 75.7477 59.1842 74.8286 58.2179C76.6763 55.6442 76.5731 53.823 76.5825 49.103L76.6013 47.5235L70.9455 47.5978L71.0955 49.6419C71.058 52.6988 71.0768 53.8602 70.7297 54.7801C69.2759 53.1448 66.1995 48.7407 64.4268 46.7059C68.5256 44.3737 70.3639 41.7164 70.3639 38.2321C70.3639 33.7258 66.9498 30.4553 62.2507 30.4553C56.3323 30.4553 53.1433 34.9895 53.1433 39.2542C53.1433 41.2333 53.8186 43.2681 55.1036 45.2285C51.5769 47.5421 49.7198 50.7104 49.7198 54.4642C49.7198 57.2887 50.9579 60.1319 53.359 62.018H46.4464L33.9811 47.124L47.4875 30.7712H39.5431L28.6536 43.872C28.5598 43.9277 28.1753 43.9092 27.9502 43.8999C27.7907 43.8906 27.6031 43.8813 28.0346 43.8255V30.7805L21 30.7526V97L27.9314 96.9628V65.1213H81.4973V62.018H78.4021ZM27.9314 62.018V50.5618H28.9631L37.7235 62.018H27.9314ZM61.9787 35.9186C63.9859 35.9186 64.0891 37.9906 64.0891 38.4087C64.0891 39.8488 63.2074 40.9638 60.8157 42.4504C59.934 41.1682 59.5588 40.0904 59.5588 38.9011C59.5588 38.3994 59.6808 35.9186 61.9787 35.9186ZM58.6115 49.6419C61.1909 52.5501 63.7233 55.3097 65.4022 57.1401C64.1829 58.0506 62.6822 58.5524 61.1252 58.5524C58.3395 58.5524 56.3136 56.5919 56.3136 53.8881C56.3136 52.2621 57.0733 50.8684 58.6115 49.6419ZM68.3286 62.018C68.6287 61.8229 68.9195 61.6092 69.2103 61.3862C69.4166 61.5999 69.6136 61.8136 69.8106 62.018H68.3286Z" fill="#231F20"/>
<path d="M33.4465 78.8447C33.6341 78.8447 33.7466 78.6774 33.8873 78.3615C33.9905 78.1292 34.1031 77.8226 34.2438 77.4603L34.3376 77.2001C34.4407 76.9121 34.5439 76.6055 34.6565 76.271C34.7971 75.8436 34.9378 75.4348 35.0785 75.0352L35.1348 74.868C35.2474 74.5428 35.3505 74.2455 35.4537 73.9853C35.4818 73.9203 35.51 73.8552 35.5287 73.7902C35.5944 73.9203 35.66 74.0503 35.7257 74.199C35.8852 74.5149 36.054 74.8401 36.2322 75.1839C36.4198 75.5277 36.6261 75.8529 36.8325 76.1781C37.0388 76.4847 37.2639 76.7727 37.5266 77.0607C37.7798 77.3209 38.0518 77.5346 38.3144 77.6926C38.6052 77.8598 38.9147 77.9527 39.243 77.9527C39.4493 77.9527 39.6275 77.8691 39.787 77.6926C39.9277 77.5253 40.0027 77.3209 40.0027 77.1072C40.0027 76.7077 39.7589 76.5683 39.5338 76.5683C39.3837 76.5683 39.2618 76.6705 39.2149 76.8656C39.2055 76.9028 39.1961 76.9214 39.2055 76.9214L39.1867 76.9585C39.1867 76.9585 39.0742 76.9028 38.9804 76.8192C38.8397 76.7077 38.6802 76.559 38.4645 76.3267C38.2582 76.1037 38.0706 75.8714 37.8924 75.6392C37.6954 75.3883 37.5266 75.1281 37.3671 74.8866C37.217 74.645 37.0857 74.422 36.9826 74.2176C36.87 73.9853 36.8512 73.8738 36.8512 73.8459C36.8512 73.8459 36.8794 73.7902 37.0294 73.6973C37.2264 73.5765 37.4609 73.4464 37.7423 73.2977C38.033 73.1491 38.3519 72.9818 38.699 72.796C39.0929 72.573 39.4024 72.3779 39.6744 72.1735C39.9746 71.9412 40.2372 71.681 40.4529 71.4023C40.6311 71.17 40.7343 70.9192 40.7718 70.6497L40.8 70.4174C40.8 70.1015 40.7156 69.8321 40.5374 69.5998C40.3779 69.3861 40.1809 69.2188 39.9465 69.0888C39.712 68.9587 39.4775 68.875 39.2336 68.8193C38.9522 68.7636 38.7646 68.745 38.5958 68.745C38.427 68.745 38.2488 68.7636 38.0893 68.81C37.9393 68.8472 37.7798 68.8843 37.6203 68.9308C37.5266 68.9587 37.4234 68.9865 37.3296 69.0144L37.2639 69.033C37.2921 68.9494 37.3014 68.8658 37.3014 68.7728C37.3014 68.7078 37.2921 68.6056 37.2358 68.522C37.217 68.4755 37.1889 68.4384 37.1326 68.364C37.0951 68.299 37.0294 68.2247 36.9357 68.1596C36.87 68.1225 36.795 68.0853 36.6918 68.0853C36.5886 68.0853 36.3635 68.1224 36.2416 68.4384C36.1947 68.5777 36.1478 68.7264 36.1009 68.9029C36.054 69.0609 35.9977 69.2188 35.9414 69.3861C35.8945 69.5069 35.8289 69.5905 35.7351 69.6462C35.6788 69.6834 35.5944 69.7299 35.4631 69.8042C35.3693 69.8506 35.2661 69.9157 35.1536 69.9807L34.9847 70.0829C34.7971 70.1851 34.6096 70.3059 34.422 70.4267C34.3094 70.501 34.1969 70.5847 34.0843 70.659L33.9061 70.7798C33.7279 70.9006 33.5872 71.0214 33.5028 71.1236C33.3527 71.2629 33.2777 71.4023 33.2777 71.551C33.2777 71.6346 33.3058 71.7275 33.3527 71.8111C33.3715 71.8483 33.3996 71.8855 33.4184 71.9319C33.4653 72.0248 33.5215 72.0806 33.5684 72.127C33.7279 72.285 33.9342 72.2571 34.0468 72.1828C34.0937 72.1549 34.1312 72.1177 34.1593 72.0806C34.2344 72.0062 34.3375 71.9133 34.4782 71.7925C34.6283 71.6625 34.7784 71.5417 34.9378 71.4116L35.041 71.3373C35.1348 71.2722 35.2286 71.1979 35.3224 71.1421C35.3036 71.2072 35.2755 71.2815 35.2474 71.3651L34.9191 72.2757C34.8347 72.508 34.7409 72.7588 34.6471 73.019L33.2495 76.8656C33.1464 77.1815 33.0619 77.4417 32.9963 77.6461C32.9025 77.9527 32.8931 78.0549 32.8931 78.1107C32.8931 78.2686 32.9213 78.4173 32.9682 78.5381C33.0338 78.7425 33.212 78.8633 33.4371 78.8633L33.4465 78.8447ZM39.7495 70.501C39.6369 70.6311 39.4869 70.7612 39.2993 70.9006C39.1492 71.0214 38.9804 71.1329 38.774 71.2536C38.6896 71.3094 38.6052 71.3558 38.5395 71.393C38.4645 71.4302 38.4082 71.4673 38.3801 71.4859C38.23 71.5695 38.0612 71.681 37.8455 71.8204C37.6485 71.9505 37.4421 72.0806 37.2452 72.2106C37.0294 72.3407 36.8231 72.4615 36.6355 72.573C36.5417 72.6288 36.4479 72.6752 36.3635 72.7124L36.3166 72.6009C36.3166 72.6009 36.2791 72.508 36.2603 72.4615C36.2322 72.3872 36.2041 72.3221 36.1853 72.2292C36.1665 72.1828 36.1665 72.1549 36.1572 72.127C36.2228 71.9598 36.2697 71.7925 36.326 71.6346L36.6449 70.6683C36.673 70.5754 36.7199 70.4917 36.7762 70.4174C36.795 70.3895 36.8512 70.3524 36.9169 70.3338C37.2452 70.2316 37.5641 70.1294 37.8924 70.0458C38.2113 69.9621 38.5302 69.925 38.8397 69.925H38.9428C38.9897 69.925 39.0554 69.925 39.1304 69.9436C39.2618 69.9621 39.3931 69.99 39.5338 70.0179C39.6557 70.0458 39.7589 70.0922 39.8339 70.148C39.8902 70.1851 39.8996 70.2223 39.8996 70.2502C39.8996 70.3431 39.8245 70.4453 39.7495 70.5196V70.501Z" fill="#231F20"/>
<path d="M40.6405 71.0864L40.6968 71.2536C40.7437 71.3837 40.8563 71.4673 40.9688 71.5417C41.0626 71.5974 41.147 71.6439 41.2689 71.6996L41.3534 71.7461C41.3534 71.7461 41.4284 71.7832 41.4753 71.8111C41.4565 71.8483 41.4378 71.8947 41.419 71.9412C41.3346 72.127 41.2314 72.35 41.1095 72.6102L40.5936 73.7251C40.4905 73.9481 40.3967 74.1618 40.3029 74.3662C40.1809 74.645 40.0778 74.8959 39.9933 75.1096C39.8527 75.4626 39.8527 75.5741 39.8527 75.6113C39.8527 75.7228 39.8902 75.8157 39.9183 75.89C39.9652 75.9922 40.0215 76.0759 40.0778 76.1316C40.1434 76.2059 40.2091 76.271 40.2935 76.3267C40.4905 76.4568 40.7625 76.4568 40.9219 76.2617C40.9782 76.1966 41.0157 76.1316 41.0345 76.0666C41.1658 75.7692 41.2971 75.4533 41.4096 75.1467C41.5222 74.8494 41.6535 74.5521 41.7754 74.2547C41.9255 73.9296 42.085 73.6136 42.2444 73.307C42.4039 73.0004 42.5539 72.6845 42.6852 72.3593C42.6852 72.3593 42.6852 72.3593 42.6946 72.3407C42.7134 72.35 42.7415 72.3593 42.7697 72.3779C42.8541 72.4336 42.9291 72.4987 42.9948 72.5823C43.0604 72.6566 43.1073 72.7588 43.1448 72.8332C43.173 72.9075 43.1917 72.9818 43.1917 73.0562C43.1917 73.2141 43.173 73.4278 43.1355 73.688C43.0979 73.9574 43.051 74.2455 42.9854 74.5707L42.9197 74.8959C42.8728 75.1188 42.8259 75.3511 42.779 75.5927C42.704 75.9458 42.629 76.2988 42.5539 76.6333L42.3476 77.5811C42.2819 77.8784 42.235 78.1292 42.1975 78.3058C42.1694 78.3987 42.1694 78.473 42.1694 78.5195C42.1694 78.7425 42.2538 78.9283 42.4132 79.0955C42.5727 79.2535 42.779 79.3371 42.9948 79.3371C43.2761 79.3371 43.4919 79.142 43.6419 78.9933C43.8295 78.7889 44.0077 78.5288 44.1484 78.2593C44.3173 77.9527 44.4673 77.6089 44.5893 77.3116C44.7393 76.9492 44.8613 76.5962 44.9551 76.2988C45.0582 75.9644 45.1333 75.667 45.1989 75.3883C45.2646 75.1188 45.3021 74.8959 45.3021 74.7286C45.3021 74.4499 45.2646 74.1897 45.1896 73.976C45.1239 73.7809 45.0301 73.5951 44.9269 73.4371C44.8707 73.3535 44.8238 73.2792 44.7862 73.2048L44.6831 73.0376C44.6268 72.954 44.608 72.861 44.608 72.7495C44.608 72.6752 44.608 72.6195 44.6174 72.573C44.6362 72.4987 44.6549 72.4244 44.6737 72.35C44.8613 71.681 45.0113 71.0121 45.1614 70.2316C45.2833 69.5626 45.3396 68.8472 45.3396 68.0574L45.3209 67.9273C45.3209 67.788 45.2833 67.6672 45.2177 67.5836C45.1614 67.4906 45.0864 67.407 44.9832 67.342C44.8988 67.2862 44.805 67.2305 44.7206 67.2119C44.5893 67.1561 44.4767 67.1562 44.4017 67.1562H44.2891L44.0265 67.4721L44.0546 67.5836C44.0546 67.5836 44.0734 67.6672 44.0922 67.7136C43.9796 67.6486 43.8764 67.6486 43.8108 67.6486C43.6232 67.6486 43.5013 67.8251 43.3793 68.0202C43.2386 68.2432 43.1261 68.4662 43.0229 68.6799L42.235 70.3524C42.1225 70.6032 42.0099 70.8077 41.9068 70.9749C41.8692 71.0399 41.8411 71.0771 41.8223 71.0957C41.7942 71.0864 41.7661 71.0678 41.7098 71.0399C41.541 70.947 41.3909 70.9099 41.2408 70.9099H41.0345C40.95 70.9284 40.875 70.9656 40.8 71.0121L40.6499 71.1143L40.6405 71.0864ZM43.8858 76.113L44.1484 74.7844C44.1672 74.6914 44.186 74.5985 44.2047 74.5149C44.186 75.0631 44.0828 75.602 43.9046 76.1409C43.8858 76.1874 43.8764 76.2338 43.8577 76.271C43.8671 76.2152 43.8764 76.1595 43.8858 76.1037V76.113ZM43.9421 69.9343L43.8483 70.4546C43.8014 70.6869 43.7639 70.9099 43.7076 71.1143C43.6607 71.3651 43.595 71.6067 43.5294 71.8018C43.5106 71.8576 43.5013 71.8947 43.4825 71.9319C43.4075 71.8855 43.3324 71.8297 43.2293 71.7647C43.1448 71.7182 43.0886 71.6625 43.0323 71.616C43.051 71.5788 43.0698 71.5324 43.0979 71.458C43.1355 71.3744 43.1824 71.2908 43.2293 71.1886C43.2761 71.0864 43.3324 70.9749 43.3887 70.8634L43.5013 70.6404C43.5857 70.4825 43.6701 70.3059 43.7639 70.1294C43.8389 69.9807 43.9139 69.8414 43.9796 69.7113C43.9702 69.7856 43.9515 69.8599 43.9421 69.9436V69.9343Z" fill="#231F20"/>
<path d="M46.0243 77.1444V77.2187H46.2682V77.1908C46.5496 77.2187 46.8216 77.1815 47.0748 77.0514C47.3187 76.9307 47.5438 76.7541 47.7595 76.5125C47.9471 76.2988 48.1441 76.048 48.3223 75.7599L48.463 75.5277C48.5849 75.3325 48.6975 75.1374 48.81 74.933C48.885 74.7844 48.9695 74.645 49.0445 74.5149L49.1383 74.3477C49.1008 74.5335 49.082 74.7286 49.082 74.9423C49.082 75.091 49.1008 75.2211 49.1289 75.3511C49.1664 75.4998 49.2133 75.6206 49.279 75.7321C49.3634 75.8714 49.4666 75.9736 49.5697 76.0387C49.7949 76.1966 50.17 76.2524 50.4796 76.0387C50.6015 75.9551 50.6953 75.8622 50.7797 75.7599C50.8641 75.6577 50.9391 75.5555 51.0048 75.4626C51.0798 75.3511 51.1267 75.2582 51.1642 75.1839C51.4738 74.5985 51.7739 74.0225 52.0647 73.4557C52.3648 72.8889 52.6743 72.3129 53.0026 71.7368C53.0495 71.6532 53.1058 71.5603 53.1621 71.4488C53.2371 71.3187 53.3215 71.1607 53.4247 70.9842C53.6123 70.659 53.8092 70.3152 54.0062 69.9621C54.2032 69.6091 54.4002 69.2653 54.5877 68.9401C54.7753 68.6149 54.916 68.364 55.038 68.1782L55.1599 67.9924C55.2162 67.8902 55.2443 67.788 55.2443 67.6672C55.2443 67.5278 55.1974 67.3884 55.113 67.2769C55.0098 67.1097 54.8504 67.0168 54.6722 67.0168C54.569 67.0168 54.4658 67.0725 54.4002 67.1654C54.3814 67.2026 54.3533 67.2491 54.3251 67.2955L54.297 67.3699C54.297 67.3699 54.2782 67.4256 54.2595 67.4721V67.5092C53.9593 68.0295 53.6873 68.4848 53.3872 68.9029C53.0495 69.3954 52.7494 69.8785 52.4774 70.371C52.3836 70.5289 52.271 70.7333 52.1397 70.9842C52.0553 71.1421 51.9709 71.2908 51.8771 71.458L51.5394 72.0713C51.4363 72.2664 51.3237 72.4615 51.2111 72.6752C51.108 72.8703 51.0048 73.0562 50.9016 73.2327L50.7328 73.5207C50.6859 73.6136 50.6296 73.6973 50.5827 73.7809C50.6109 73.6508 50.639 73.5114 50.6671 73.3721L50.714 73.1119C50.7516 72.9261 50.7797 72.7588 50.8078 72.6009L50.8641 72.3036C50.8922 72.1549 50.9204 72.0248 50.9298 71.9226C50.9579 71.7461 50.9673 71.616 50.9673 71.5603C50.9673 71.4488 50.9298 71.3373 50.8453 71.2443C50.7891 71.17 50.714 71.1143 50.6202 71.0585C50.5358 71.0121 50.442 70.9749 50.3764 70.9563C50.2638 70.9192 50.17 70.9192 50.1138 70.9192C49.9168 70.9192 49.8324 71.1329 49.8136 71.1886C49.7761 71.2629 49.7386 71.3466 49.7104 71.4488L49.6729 71.551C49.6354 71.6625 49.5979 71.774 49.551 71.8855C49.5135 71.9877 49.4853 72.0527 49.4572 72.0899C49.3353 72.285 49.1758 72.5266 48.9788 72.8146L48.5661 73.4278C48.4067 73.6694 48.2379 73.9203 48.0597 74.1711C47.7877 74.5614 47.525 74.933 47.2624 75.2675C47.2343 75.2954 47.2155 75.3325 47.1874 75.3604C47.2249 75.2118 47.2718 75.0724 47.3187 74.9144C47.4688 74.4313 47.6188 73.9388 47.7595 73.4371C47.9002 72.9447 48.0315 72.4522 48.1441 71.9969C48.2566 71.5231 48.3223 71.1143 48.3223 70.7798C48.3223 70.3988 48.2097 70.0829 47.994 69.8506C47.7595 69.5905 47.45 69.4511 47.0654 69.4511C46.9529 69.4511 46.831 69.4883 46.7465 69.5533C46.6434 69.6369 46.5871 69.7577 46.5871 69.8878C46.5871 69.9993 46.634 70.1015 46.7278 70.2037L46.8028 70.2688C46.8028 70.2688 46.8591 70.3152 46.8872 70.3524C46.9341 70.3988 46.981 70.4453 47.0185 70.501C47.0373 70.5289 47.0467 70.5568 47.0467 70.6032C47.0467 70.6962 47.0279 70.8727 46.9435 71.2072C46.8685 71.4952 46.7841 71.8018 46.6715 72.1642L46.6152 72.3407C46.5214 72.6473 46.4276 72.954 46.3151 73.2792C46.2213 73.5672 46.1275 73.8552 46.0431 74.1247L45.9493 74.422C45.8461 74.7844 45.7523 75.1281 45.6773 75.4348C45.6022 75.7321 45.5647 76.0015 45.5647 76.2245C45.5647 76.5962 45.6398 76.847 45.7805 76.9957C45.8461 77.07 45.9118 77.1258 45.9868 77.1629L46.0243 77.1444Z" fill="#231F20"/>
<path d="M36.8325 83.9549C36.8325 83.7877 36.7762 83.6483 36.6824 83.5368C36.598 83.4439 36.4948 83.3603 36.3729 83.3045C36.251 83.2488 36.129 83.2023 36.0446 83.193C35.9039 83.1466 35.7726 83.1466 35.6788 83.1466C35.4631 83.1466 35.238 83.193 35.0035 83.2859C34.9378 83.3138 34.8722 83.3417 34.8065 83.351C34.8065 83.3324 34.8065 83.3138 34.8159 83.2952L34.844 83.2023C34.8722 83.1001 34.9003 82.9979 34.9378 82.905C34.9847 82.7656 35.0316 82.6263 35.0879 82.4219C35.1254 82.2918 35.1536 82.171 35.1723 82.0409C35.1911 81.883 35.238 81.7622 35.3036 81.66C35.3411 81.6042 35.3974 81.5578 35.4725 81.5206C35.5569 81.4834 35.6694 81.4648 35.7726 81.4648H36.2603C36.5042 81.4648 36.7387 81.4834 37.0201 81.5206C37.2639 81.5485 37.4609 81.6321 37.6391 81.7715C37.6672 81.79 37.7048 81.8179 37.761 81.8922C37.8642 82.013 37.9955 82.0781 38.1268 82.0781C38.305 82.0781 38.4082 81.9852 38.4457 81.9201C38.5302 81.8272 38.5677 81.725 38.5677 81.6135C38.5677 81.4556 38.502 81.2233 38.1644 81.0096C37.9299 80.8702 37.6954 80.7587 37.4421 80.6844C37.1326 80.5915 36.8794 80.5357 36.6636 80.4985C36.4198 80.4521 36.2134 80.4335 36.0634 80.4335C35.9133 80.4335 35.7163 80.4521 35.4818 80.4893C35.2474 80.5264 34.9941 80.5822 34.7221 80.6472C34.4407 80.7122 34.1781 80.7959 33.8873 80.8981C33.6247 80.991 33.3621 81.1025 33.0995 81.2419C32.8462 81.3719 32.6493 81.5206 32.4992 81.6878C32.3116 81.883 32.2178 82.0874 32.2178 82.3104C32.2178 82.459 32.2741 82.5891 32.396 82.7285C32.5461 82.8957 32.7055 82.9329 32.8181 82.9329C32.9588 82.9329 33.0713 82.8214 33.1839 82.7006C33.2683 82.6077 33.3715 82.4962 33.4934 82.3754C33.5872 82.2732 33.7091 82.171 33.8686 82.0688C33.8967 82.0502 33.9249 82.0316 33.9624 82.013C33.953 82.0874 33.9249 82.1803 33.8873 82.3011C33.8123 82.5426 33.7279 82.7935 33.6435 83.0444C33.5403 83.2952 33.4465 83.5461 33.334 83.7598C33.2026 84.02 33.1276 84.1408 33.0995 84.1686C32.9869 84.2801 32.9306 84.4195 32.9306 84.5775C32.9306 84.6704 32.9588 84.7726 33.0057 84.8655C33.0151 84.8934 33.0244 84.9212 33.0244 84.9491C33.0244 85.0699 32.9963 85.2278 32.94 85.4323C32.8744 85.646 32.7993 85.8782 32.6962 86.1849C32.6024 86.4636 32.4992 86.7516 32.3866 87.049C32.3304 87.2069 32.2741 87.3556 32.2272 87.4949C32.1803 87.6436 32.124 87.783 32.0771 87.9223C31.9833 88.1918 31.9083 88.4334 31.8239 88.7028C31.7582 88.9351 31.7207 89.1395 31.7207 89.3068C31.7207 89.4833 31.7957 89.6598 31.9364 89.7992C32.0208 89.8828 32.1146 89.9386 32.2178 89.9757V90.0222H32.4523C32.6868 90.0222 32.7806 89.8735 32.7993 89.8085C32.8181 89.762 32.8368 89.7063 32.865 89.6412L32.8931 89.539C32.9213 89.4368 32.9682 89.2789 33.0338 89.0838C33.1182 88.8143 33.212 88.4891 33.3152 88.1268L33.6622 86.9932C33.7935 86.5937 33.9061 86.2313 34.0093 85.8875C34.1124 85.553 34.2062 85.2743 34.2907 85.042C34.3469 84.8841 34.3844 84.8004 34.3938 84.7633C34.5439 84.7075 34.6846 84.6518 34.8159 84.6053L34.8909 84.5775C35.0222 84.5217 35.1911 84.466 35.3599 84.4288C35.51 84.3916 35.6694 84.3545 35.857 84.3359C36.0071 84.308 36.1947 84.308 36.4198 84.308C36.6824 84.308 36.8043 84.1315 36.8043 83.9642L36.8325 83.9549Z" fill="#231F20"/>
<path d="M42.3851 82.8121C42.4414 82.6541 42.507 82.4869 42.5446 82.3289C42.5914 82.1617 42.6196 81.9852 42.6196 81.8086C42.6196 81.66 42.5727 81.5392 42.5258 81.4463C42.4789 81.3533 42.4039 81.2604 42.3194 81.1768C42.235 81.0932 42.1412 81.0282 42.0193 80.9817C41.7567 80.8702 41.4565 80.8795 41.2033 81.0653C41.0814 81.1489 40.9594 81.2419 40.8375 81.3534L40.5186 81.6414C40.4623 81.6878 40.4248 81.7157 40.3967 81.7343H40.2278C40.1153 81.725 40.0215 81.7436 39.8902 81.8086C39.8339 81.8365 39.7776 81.8644 39.7307 81.8922C39.2805 82.1989 38.8491 82.5519 38.4551 82.9515C38.0424 83.351 37.6579 83.8063 37.3296 84.2894C37.0013 84.7726 36.7387 85.2743 36.523 85.8225C36.3447 86.2871 36.251 86.7516 36.2228 87.2348V87.4671L36.2322 87.4856C36.2322 87.6715 36.2697 87.8852 36.3354 88.1268C36.401 88.359 36.4948 88.5727 36.6168 88.7679C36.7387 88.963 36.8981 89.1302 37.0857 89.2696C37.2827 89.4183 37.5266 89.4926 37.7986 89.4926C38.0237 89.4926 38.23 89.4461 38.3895 89.3625C38.5395 89.2882 38.699 89.1953 38.8397 89.0745C39.0085 88.9537 39.1398 88.8143 39.2618 88.6935L39.5994 88.3312C39.9277 87.9874 40.1997 87.6343 40.4436 87.2255C40.6593 86.8538 40.8469 86.4822 41.0251 86.0827C41.1939 85.6924 41.344 85.3022 41.5034 84.8934C41.6254 84.5403 41.7848 84.1593 41.9912 83.7041C42.0474 83.574 42.1131 83.4439 42.1788 83.2952C42.2538 83.1373 42.3288 82.9793 42.3851 82.8214V82.8121ZM37.4515 88.3962C37.414 88.2847 37.3952 88.2011 37.3952 88.0989C37.3952 87.9874 37.3952 87.8945 37.3952 87.8108H37.3765C37.3765 87.4671 37.4421 87.0954 37.5735 86.6866C37.7235 86.2313 37.8924 85.8504 38.0893 85.5066C38.3144 85.1071 38.5677 84.754 38.8209 84.4474C38.9241 84.3266 39.0273 84.2151 39.1304 84.1129C39.0929 84.2894 39.0742 84.466 39.0742 84.6332C39.0742 84.7447 39.0835 84.8748 39.1023 85.042C39.1304 85.2278 39.1586 85.3951 39.2055 85.5438C39.2618 85.7296 39.3274 85.8782 39.4118 86.0083C39.4962 86.1477 39.6088 86.2499 39.7495 86.3056C39.7213 86.3614 39.6838 86.4264 39.6463 86.4915C39.5713 86.6401 39.4587 86.8167 39.3086 87.0211C39.168 87.2162 39.0179 87.4113 38.8678 87.6157C38.7177 87.8108 38.5583 87.9781 38.3988 88.1453C38.2675 88.2847 38.1175 88.4055 37.9674 88.517C37.761 88.6564 37.6204 88.6378 37.5922 88.6006C37.5359 88.5263 37.4984 88.4612 37.4703 88.3776L37.4515 88.3962ZM41.3346 82.5241C41.3158 82.5891 41.2877 82.6541 41.2689 82.7192L41.2314 82.8307C41.147 83.0815 41.0532 83.351 40.9407 83.639L40.7625 84.1036C40.6968 84.2708 40.6311 84.4381 40.5655 84.6053C40.4529 84.9027 40.3404 85.1535 40.2372 85.3858C40.2278 85.3486 40.2185 85.3022 40.2091 85.265L40.1903 85.2C40.1903 85.2 40.1903 85.1814 40.1903 85.1721V85.1071C40.1903 84.8283 40.2372 84.5403 40.331 84.2244C40.4154 83.9271 40.5467 83.6483 40.7062 83.3789C40.8656 83.1094 41.0438 82.8586 41.2502 82.617C41.2783 82.5798 41.3158 82.5519 41.344 82.5148L41.3346 82.5241Z" fill="#231F20"/>
<path d="M49.898 88.7586C49.7667 88.7586 49.6542 88.8329 49.5979 88.9537C49.5791 88.9816 49.5697 89.0187 49.5416 89.1023C49.5416 89.1116 49.5322 89.1302 49.5228 89.1488C49.4572 89.1395 49.3634 89.0931 49.2039 88.9908C49.007 88.8701 48.8006 88.7028 48.5849 88.517C48.3223 88.2754 48.1066 88.0617 47.9002 87.848C47.6751 87.6157 47.4781 87.3834 47.2812 87.1326C47.1123 86.9189 46.9623 86.6959 46.8403 86.4915C46.7184 86.2871 46.6996 86.1849 46.6903 86.1756C46.6996 86.157 46.7465 86.1105 46.9154 86.0176C47.1499 85.8968 47.4219 85.7667 47.7595 85.6274C48.1066 85.4787 48.4724 85.3208 48.8757 85.1442C49.2602 84.9863 49.6354 84.7912 50.02 84.5496C50.3858 84.3359 50.6953 84.085 50.9391 83.8156C51.2111 83.5275 51.3518 83.193 51.3518 82.84C51.3518 82.5241 51.2487 82.2546 51.0329 82.0316C50.8453 81.8365 50.6202 81.6785 50.3482 81.5485C50.0575 81.4277 49.7949 81.3441 49.5416 81.2976C48.8475 81.1768 48.538 81.2047 48.2285 81.2697C48.0409 81.3069 47.8627 81.3441 47.6845 81.3812L47.4969 81.4277C47.3937 81.4556 47.2905 81.4741 47.1967 81.4927C47.1967 81.4927 47.1967 81.4927 47.1874 81.4927C47.2155 81.4184 47.2343 81.3255 47.2343 81.2233C47.2343 81.1396 47.2061 81.056 47.1499 80.9631C47.1217 80.9167 47.0748 80.8609 47.0279 80.7959C46.9716 80.7308 46.906 80.6751 46.831 80.6286C46.7372 80.5729 46.6527 80.545 46.5683 80.545C46.4464 80.545 46.2213 80.5822 46.09 80.8702C46.0337 81.0003 45.968 81.1489 45.9118 81.3162C45.8555 81.4648 45.7992 81.6228 45.7242 81.7808C45.6679 81.8922 45.5929 81.9759 45.5085 82.013C45.4522 82.0316 45.3678 82.0688 45.2552 82.1245L45.002 82.2453C44.8707 82.3011 44.73 82.3661 44.5799 82.4404C44.3735 82.5426 44.1578 82.6541 43.9327 82.7749L43.8014 82.8493C43.6326 82.9422 43.4637 83.0351 43.323 83.128C43.1542 83.2302 42.9948 83.3417 42.8541 83.4625C42.6759 83.6019 42.5821 83.7412 42.5821 83.8899C42.5821 83.9642 42.6102 84.0478 42.6571 84.1222C42.6946 84.1965 42.7415 84.2615 42.7884 84.308C42.8353 84.373 42.8822 84.4195 42.976 84.4845C43.0979 84.5589 43.2761 84.6053 43.4544 84.4845C43.4825 84.466 43.5106 84.4474 43.5106 84.4381L44.0077 84.085C44.1578 83.9828 44.3079 83.8806 44.4767 83.7784C44.6549 83.6669 44.8238 83.574 44.9926 83.4904C44.9644 83.5554 44.9363 83.6297 44.8988 83.7134L44.8425 83.8434C44.7393 84.0664 44.6362 84.308 44.5142 84.5867C44.3642 84.9212 44.2047 85.2743 44.0265 85.6645C43.8577 86.0455 43.6795 86.4357 43.5013 86.826C43.3324 87.2162 43.1636 87.5879 42.9948 87.9595C42.8822 88.2104 42.779 88.4334 42.6852 88.6564L42.5446 88.9723C42.4226 89.2696 42.3194 89.5297 42.2444 89.7342C42.1506 89.9943 42.1131 90.1058 42.1131 90.1987C42.1131 90.366 42.1412 90.5146 42.2069 90.6354C42.2913 90.8212 42.4789 90.9327 42.7134 90.9327C42.9291 90.9327 43.0604 90.719 43.1917 90.4868C43.3137 90.2638 43.445 89.9943 43.6044 89.6227C43.7545 89.2789 43.9139 88.8979 44.0828 88.4798C44.1953 88.1918 44.3173 87.913 44.4298 87.6436L44.5799 87.2905C44.7393 86.9096 44.8894 86.5844 45.0301 86.2871C45.077 86.1849 45.1239 86.1012 45.1614 86.0176C45.2552 86.1663 45.349 86.3242 45.4522 86.5008C45.6398 86.8074 45.8367 87.1326 46.0525 87.4485C46.2869 87.8016 46.5402 88.136 46.7653 88.4055C47.0467 88.7493 47.3093 89.0187 47.5813 89.251C47.8627 89.4926 48.1628 89.697 48.5099 89.8642C48.8475 90.0222 49.1946 90.0965 49.5604 90.0965C49.7667 90.0965 49.9731 90.0129 50.1419 89.8549C50.3107 89.697 50.4045 89.4926 50.4045 89.2696C50.4045 88.9537 50.2075 88.7493 49.8886 88.7493L49.898 88.7586ZM47.4875 84.4288L47.1967 84.5775C46.9623 84.6982 46.7278 84.8097 46.4933 84.9119C46.3526 84.977 46.2213 85.0234 46.1087 85.0699C46.1087 85.0699 46.0994 85.0513 46.09 85.042C46.0431 84.9677 46.0149 84.8934 45.9774 84.819C45.9493 84.7633 45.9305 84.6982 45.9118 84.6518L45.893 84.596C45.893 84.596 45.8742 84.5403 45.8742 84.5124L45.9211 84.3916C46.0056 84.2058 46.0806 84.02 46.1556 83.8341C46.2025 83.7134 46.2494 83.6019 46.2963 83.4811C46.3432 83.3603 46.3995 83.2395 46.4464 83.1187C46.4839 83.0351 46.5308 82.9515 46.5777 82.905C46.6152 82.8678 46.6996 82.8214 46.7934 82.7935C47.1686 82.6913 47.5438 82.5984 47.9377 82.5148C48.2285 82.4497 48.5286 82.4126 48.8381 82.4033H49.0726C49.1383 82.4033 49.2602 82.4033 49.4197 82.4219C49.5604 82.4219 49.7292 82.459 49.8886 82.4962C50.0575 82.5334 50.1794 82.5705 50.2826 82.6356C50.3107 82.6541 50.3482 82.6727 50.3482 82.7006C50.3482 82.7285 50.3107 82.8121 50.1794 82.9236C50.02 83.063 49.8417 83.193 49.6542 83.3045C49.4478 83.4346 49.2321 83.5368 49.0257 83.639L48.9413 83.6762C48.7631 83.7598 48.6318 83.8248 48.5474 83.8713C48.3692 83.9549 48.1628 84.0571 47.919 84.1965C47.7783 84.2708 47.6282 84.3545 47.4875 84.4288Z" fill="#231F20"/>
<path d="M56.0791 85.9619L55.9947 85.9433L55.7977 86.0548L55.732 86.1012C55.6101 86.2406 55.46 86.38 55.2818 86.5193C55.0661 86.6959 54.8316 86.891 54.5596 87.0861C54.2876 87.2905 54.0062 87.5042 53.6873 87.7179C53.3872 87.9316 53.1058 88.1175 52.8244 88.294C52.5805 88.4519 52.3367 88.5913 52.121 88.7028C51.8396 88.8329 51.7645 88.8422 51.7552 88.8422C51.6989 88.8422 51.6614 88.8236 51.6238 88.7679C51.5676 88.7121 51.53 88.6285 51.4831 88.4984C51.4456 88.3962 51.4175 88.2754 51.3987 88.1268C51.38 87.9874 51.38 87.8852 51.38 87.8016C51.38 87.3834 51.4831 86.9282 51.6801 86.4264C51.8958 85.9061 52.1491 85.423 52.4492 84.9491C52.7775 84.4381 53.1058 83.9828 53.4622 83.574C53.4622 83.574 53.4622 83.574 53.4716 83.5647C53.4247 83.7041 53.4059 83.8434 53.4059 83.9828C53.4059 84.1222 53.4341 84.2615 53.4997 84.4195C53.5466 84.5403 53.6779 84.7447 54.0156 84.7447C54.1375 84.7447 54.2407 84.6611 54.3626 84.466C54.447 84.3359 54.5408 84.1872 54.644 83.9921L54.6909 83.9085C54.7847 83.7412 54.8785 83.574 54.9723 83.3789L55.2724 82.7378C55.3381 82.5798 55.4038 82.4404 55.46 82.3104L55.5163 82.1803C55.5632 82.0595 55.6289 81.883 55.6289 81.7529C55.6289 81.5763 55.5444 81.4184 55.4038 81.2976C55.1786 81.1211 54.8879 81.0746 54.6909 81.2326C54.569 81.0746 54.3626 81.0467 54.1844 81.1304C54.1094 81.1582 54.0531 81.1954 54.0344 81.214C53.631 81.5206 53.1996 81.9294 52.7588 82.4404C52.3461 82.9143 51.9427 83.4532 51.5863 84.0385C51.2393 84.5867 50.9485 85.1907 50.714 85.8039C50.5171 86.3335 50.4045 86.8445 50.3764 87.3184H50.3295V87.5507C50.3295 87.7272 50.3576 87.9316 50.4139 88.1732C50.4608 88.4055 50.5452 88.6285 50.6578 88.8422C50.7703 89.0466 50.911 89.2324 51.0986 89.3904C51.2862 89.5576 51.53 89.6412 51.8021 89.6412C51.9896 89.6412 52.2429 89.5576 52.5336 89.3997C52.7494 89.2789 53.087 89.0931 53.4435 88.8422C53.7436 88.6378 54.0719 88.4055 54.4377 88.1175C54.7753 87.8573 55.0942 87.6157 55.3662 87.3741C55.6382 87.1419 55.8727 86.9375 56.0509 86.7702C56.3605 86.4729 56.3886 86.3986 56.3886 86.3056C56.3886 86.2406 56.3698 86.0176 56.0791 85.9619Z" fill="#231F20"/>
<path d="M61.9787 81.3998C61.9412 81.2883 61.8849 81.1304 61.7911 81.0189C61.688 80.8609 61.5567 80.768 61.4535 80.703C61.3222 80.6193 61.1533 80.5729 60.9845 80.5729C60.6375 80.5729 60.2717 80.6751 59.8777 80.8795C59.5119 81.0746 59.1743 81.3162 58.8554 81.6414C58.5365 81.9666 58.2832 82.3011 58.0956 82.6448C57.8893 83.0258 57.7861 83.3882 57.7861 83.7412C57.7861 83.8992 57.8049 84.0386 57.8518 84.15C57.8893 84.243 57.9362 84.3359 57.9925 84.4009C58.0206 84.4381 58.0488 84.466 58.0863 84.5031C57.7861 84.7726 57.5235 85.0513 57.2984 85.3208C57.0545 85.6088 56.8482 85.9154 56.6794 86.2313C56.5199 86.5472 56.3886 86.891 56.3042 87.2441C56.2198 87.5971 56.1729 87.9874 56.1729 88.4519L56.1916 88.5634C56.201 88.9165 56.2854 89.2138 56.4355 89.4461C56.6137 89.7156 56.9514 89.8642 57.4297 89.8642C57.6361 89.8642 57.8799 89.7992 58.1707 89.6784C58.4802 89.5483 58.7803 89.3997 59.0523 89.2417C59.3525 89.0652 59.6714 88.8608 59.9809 88.6564C60.2811 88.4427 60.5624 88.2382 60.8063 88.0431C61.0314 87.8666 61.2378 87.6808 61.416 87.5042C61.6317 87.2905 61.7161 87.1419 61.7161 87.0025C61.7161 86.7981 61.566 86.668 61.5191 86.6216C61.2847 86.4171 61.0408 86.3893 60.6656 86.7145L60.5624 86.7981C60.4405 86.9003 60.2998 87.0304 60.1404 87.1697L59.8777 87.3927C59.7464 87.5042 59.6057 87.6343 59.4557 87.7551C59.2212 87.9502 58.9679 88.1546 58.6959 88.3312C58.4614 88.4798 58.1801 88.6471 57.8893 88.7679C57.6267 88.8794 57.3922 88.9351 57.1202 88.9351C57.0827 88.8979 57.0827 88.8886 57.0733 88.8794C57.0545 88.8236 57.0452 88.7771 57.0452 88.74V88.5263C57.0452 88.1268 57.1483 87.6993 57.3734 87.2255C57.6173 86.7238 57.8987 86.2964 58.2363 85.9154C58.5834 85.5252 58.9773 85.1907 59.4181 84.9212C59.7464 84.7168 60.0841 84.596 60.4405 84.5403C60.4311 84.5867 60.4217 84.6332 60.4217 84.6797C60.4217 84.8283 60.4968 84.9398 60.6187 84.9956C60.7219 85.0606 60.8157 85.0606 60.8626 85.0606C61.0689 85.0606 61.2471 84.9677 61.3784 84.8004C61.5098 84.6518 61.5754 84.4752 61.5754 84.2987C61.5754 84.0107 61.4629 83.7691 61.2565 83.6019C60.9282 83.3324 60.4593 83.3045 59.9997 83.4625C59.8308 83.5182 59.6808 83.574 59.5213 83.6483C59.39 83.7041 59.2587 83.7505 59.0805 83.8156C58.9586 83.862 58.8366 83.8806 58.7147 83.8806C58.6959 83.8806 58.6865 83.8806 58.6303 83.797C58.6303 83.6204 58.7241 83.3974 58.8929 83.1559C59.0711 82.905 59.2962 82.6727 59.5776 82.4311C59.8496 82.2082 60.1404 82.013 60.4311 81.8644C60.6656 81.7436 60.872 81.6693 61.0502 81.6507C61.0502 81.6878 61.0502 81.725 61.0314 81.7622C61.0033 81.8551 61.0033 81.9294 61.0033 81.9759C61.0033 82.1152 61.0408 82.2453 61.1346 82.3754C61.2471 82.5148 61.3878 82.5891 61.5567 82.5891C61.6973 82.5891 61.8005 82.4869 61.838 82.459C61.8943 82.4033 61.9412 82.3196 61.9881 82.1896C62.0069 82.1431 62.0256 82.0781 62.035 82.0037C62.0538 81.9201 62.0538 81.8551 62.0538 81.8179C62.0538 81.6785 62.035 81.5392 61.9881 81.3998H61.9787Z" fill="#231F20"/>
<path d="M85.6712 54.2133C86.5622 57.5675 89.5918 59.5279 93.8125 59.5279C98.324 59.5279 100.078 57.6418 100.078 54.8916C100.078 52.1413 98.596 50.7662 92.6682 49.3353C83.0825 47.0218 81.1784 44.1043 81.1784 39.6816C81.1784 35.2589 84.5644 30.4553 93.2497 30.4553C101.935 30.4553 105.387 35.389 105.781 39.8674H99.7216C99.2901 37.9534 97.8457 35.166 92.9777 35.166C88.7101 35.166 87.4251 37.1729 87.4251 39.1706C87.4251 41.4284 88.7007 42.5433 94.5629 43.9277C104.655 46.2878 106.55 49.6512 106.55 54.4363C106.55 60.0483 102.095 64.3223 93.6155 64.3223C85.1365 64.3223 80.7376 59.9925 79.931 54.2133H85.6712Z" fill="#231F20" stroke="#231F20" stroke-miterlimit="10"/>
</g>
<defs>
<clipPath id="clip0_1_2">
<rect width="86" height="67" fill="white" transform="translate(21 30)"/>
</clipPath>
</defs>
</svg>
