<svg width="24" height="18" viewBox="0 0 24 18" fill="none" xmlns="http://www.w3.org/2000/svg">
<path d="M8.05196 2.83655C9.21738 2.32383 10.5321 2.00012 12 2.00012C14.9551 2.00012 17.3088 3.31539 19.0604 4.86435C20.8159 6.41683 21.9259 8.1705 22.3674 8.94449C22.3791 8.96506 22.3829 8.98337 22.3829 8.99932C22.3828 9.01547 22.3787 9.03572 22.3655 9.05896C22.0997 9.52465 21.5881 10.3515 20.8354 11.2768C20.574 11.5981 20.6225 12.0705 20.9438 12.3319C21.2652 12.5933 21.7375 12.5447 21.9989 12.2234C22.8156 11.2196 23.3723 10.3209 23.6682 9.80254C23.9512 9.30669 23.9569 8.70366 23.6703 8.2013C23.1855 7.35135 21.9797 5.44363 20.054 3.74071C18.1245 2.03428 15.4319 0.500122 12 0.500122C10.3046 0.500122 8.78503 0.875299 7.44792 1.46355C7.06878 1.63035 6.89664 2.07293 7.06344 2.45207C7.23024 2.83122 7.67282 3.00335 8.05196 2.83655Z" fill="#fff"/>
<path fill-rule="evenodd" clip-rule="evenodd" d="M19.166 14.9873C17.3278 16.3788 14.933 17.5001 12 17.5001C8.56806 17.5001 5.87546 15.966 3.94586 14.2595C2.02024 12.5566 0.814363 10.6488 0.329552 9.79887C0.0433932 9.29718 0.0478802 8.69491 0.331249 8.1984C0.790741 7.39328 1.89652 5.64044 3.64787 4.01109L1.31684 2.36231C0.97867 2.12312 0.898434 1.65507 1.13763 1.3169C1.37682 0.978731 1.84487 0.898495 2.18304 1.13769L22.683 15.6377C23.0212 15.8769 23.1014 16.3449 22.8623 16.6831C22.6231 17.0213 22.155 17.1015 21.8168 16.8623L19.166 14.9873ZM4.90172 4.89796C3.17113 6.43933 2.07421 8.1706 1.63401 8.94191C1.62078 8.96509 1.61686 8.985 1.61682 9.00071C1.61678 9.01625 1.62048 9.03461 1.6325 9.05568C2.07398 9.82968 3.18405 11.5834 4.93956 13.1359C6.6911 14.6848 9.04483 16.0001 12 16.0001C14.3336 16.0001 16.2907 15.1805 17.8736 14.0732L14.3579 11.5865C13.7358 12.1539 12.9083 12.5 11.9999 12.5C10.0669 12.5 8.49988 10.933 8.49988 9C8.49988 8.51672 8.59783 8.05632 8.77496 7.63757L4.90172 4.89796Z" fill="#fff"/>
</svg>
