<?xml version="1.0" encoding="UTF-8"?>
<svg id="Layer_1" xmlns="http://www.w3.org/2000/svg" version="1.1" viewBox="0 0 91.69 72.11">
  <!-- Generator: Adobe Illustrator 29.8.2, SVG Export Plug-In . SVG Version: 2.1.1 Build 3)  -->
  <defs>
    <style>
      .st0, .st1 {
        fill: #231f20;
      }

      .st1 {
        stroke: #231f20;
        stroke-miterlimit: 10;
      }
    </style>
  </defs>
  <path class="st0" d="M61.2,34.46l-2.04-2.19c-1.03-1.11-.79-.86-1.77-1.9,1.97-2.77,1.86-4.73,1.87-9.81l.02-1.7-6.03.08.16,2.2c-.04,3.29-.02,4.54-.39,5.53-1.55-1.76-4.83-6.5-6.72-8.69,4.37-2.51,6.33-5.37,6.33-9.12,0-4.85-3.64-8.37-8.65-8.37-6.31,0-9.71,4.88-9.71,9.47,0,2.13.72,4.32,2.09,6.43-3.76,2.49-5.74,5.9-5.74,9.94,0,3.04,1.32,6.1,3.88,8.13h-7.37l-13.29-16.03L28.24.83h-8.47l-11.61,14.1c-.1.06-.51.04-.75.03-.17-.01-.37-.02.09-.08V.84l-7.5-.03v71.3l7.39-.04v-34.27h57.11v-3.34h-3.3ZM7.39,34.46v-12.33h1.1l9.34,12.33H7.39ZM43.69,6.37c2.14,0,2.25,2.23,2.25,2.68,0,1.55-.94,2.75-3.49,4.35-.94-1.38-1.34-2.54-1.34-3.82,0-.54.13-3.21,2.58-3.21ZM40.1,21.14c2.75,3.13,5.45,6.1,7.24,8.07-1.3.98-2.9,1.52-4.56,1.52-2.97,0-5.13-2.11-5.13-5.02,0-1.75.81-3.25,2.45-4.57ZM50.46,34.46c.32-.21.63-.44.94-.68.22.23.43.46.64.68,0,0-1.58,0-1.58,0Z"/>
  <g>
    <path class="st0" d="M13.27,52.57c.2,0,.32-.18.47-.52.11-.25.23-.58.38-.97l.1-.28c.11-.31.22-.64.34-1,.15-.46.3-.9.45-1.33l.06-.18c.12-.35.23-.67.34-.95.03-.07.06-.14.08-.21.07.14.14.28.21.44.17.34.35.69.54,1.06.2.37.42.72.64,1.07.22.33.46.64.74.95.27.28.56.51.84.68.31.18.64.28.99.28.22,0,.41-.09.58-.28.15-.18.23-.4.23-.63,0-.43-.26-.58-.5-.58-.16,0-.29.11-.34.32-.01.04-.02.06-.01.06l-.02.04s-.12-.06-.22-.15c-.15-.12-.32-.28-.55-.53-.22-.24-.42-.49-.61-.74-.21-.27-.39-.55-.56-.81-.16-.26-.3-.5-.41-.72-.12-.25-.14-.37-.14-.4,0,0,.03-.06.19-.16.21-.13.46-.27.76-.43.31-.16.65-.34,1.02-.54.42-.24.75-.45,1.04-.67.32-.25.6-.53.83-.83.19-.25.3-.52.34-.81l.03-.25c0-.34-.09-.63-.28-.88-.17-.23-.38-.41-.63-.55-.25-.14-.5-.23-.76-.29-.3-.06-.5-.08-.68-.08s-.37.02-.54.07c-.16.04-.33.08-.5.13-.1.03-.21.06-.31.09l-.07.02c.03-.09.04-.18.04-.28,0-.07-.01-.18-.07-.27-.02-.05-.05-.09-.11-.17-.04-.07-.11-.15-.21-.22-.07-.04-.15-.08-.26-.08s-.35.04-.48.38c-.05.15-.1.31-.15.5-.05.17-.11.34-.17.52-.05.13-.12.22-.22.28-.06.04-.15.09-.29.17-.1.05-.21.12-.33.19l-.18.11c-.2.11-.4.24-.6.37-.12.08-.24.17-.36.25l-.19.13c-.19.13-.34.26-.43.37-.16.15-.24.3-.24.46,0,.09.03.19.08.28.02.04.05.08.07.13.05.1.11.16.16.21.17.17.39.14.51.06.05-.03.09-.07.12-.11.08-.08.19-.18.34-.31.16-.14.32-.27.49-.41l.11-.08c.1-.07.2-.15.3-.21-.02.07-.05.15-.08.24l-.35.98c-.09.25-.19.52-.29.8l-1.49,4.14c-.11.34-.2.62-.27.84-.1.33-.11.44-.11.5,0,.17.03.33.08.46.07.22.26.35.5.35ZM19.99,43.59c-.12.14-.28.28-.48.43-.16.13-.34.25-.56.38-.09.06-.18.11-.25.15-.08.04-.14.08-.17.1-.16.09-.34.21-.57.36-.21.14-.43.28-.64.42-.23.14-.45.27-.65.39-.1.06-.2.11-.29.15,0,0,0,0,0,0l-.05-.12s-.04-.1-.06-.15c-.03-.08-.06-.15-.08-.25-.02-.05-.02-.08-.03-.11.07-.18.12-.36.18-.53l.34-1.04c.03-.1.08-.19.14-.27.02-.03.08-.07.15-.09.35-.11.69-.22,1.04-.31.34-.09.68-.13,1.01-.13h.11c.05,0,.12,0,.2.02.14.02.28.05.43.08.13.03.24.08.32.14.06.04.07.08.07.11,0,.1-.08.21-.16.29Z"/>
    <path class="st0" d="M20.94,44.22l.06.18c.05.14.17.23.29.31.1.06.19.11.32.17l.09.05s.08.04.13.07c-.02.04-.04.09-.06.14-.09.2-.2.44-.33.72l-.55,1.2c-.11.24-.21.47-.31.69-.13.3-.24.57-.33.8-.15.38-.15.5-.15.54,0,.12.04.22.07.3.05.11.11.2.17.26.07.08.14.15.23.21.21.14.5.14.67-.07.06-.07.1-.14.12-.21.14-.32.28-.66.4-.99.12-.32.26-.64.39-.96.16-.35.33-.69.5-1.02.17-.33.33-.67.47-1.02,0,0,0,0,.01-.02.02.01.05.02.08.04.09.06.17.13.24.22.07.08.12.19.16.27.03.08.05.16.05.24,0,.17-.02.4-.06.68-.04.29-.09.6-.16.95l-.07.35c-.05.24-.1.49-.15.75-.08.38-.16.76-.24,1.12l-.22,1.02c-.07.32-.12.59-.16.78-.03.1-.03.18-.03.23,0,.24.09.44.26.62.17.17.39.26.62.26.3,0,.53-.21.69-.37.2-.22.39-.5.54-.79.18-.33.34-.7.47-1.02.16-.39.29-.77.39-1.09.11-.36.19-.68.26-.98.07-.29.11-.53.11-.71,0-.3-.04-.58-.12-.81-.07-.21-.17-.41-.28-.58-.06-.09-.11-.17-.15-.25l-.11-.18c-.06-.09-.08-.19-.08-.31,0-.08,0-.14.01-.19.02-.08.04-.16.06-.24.2-.72.36-1.44.52-2.28.13-.72.19-1.49.19-2.34l-.02-.14c0-.15-.04-.28-.11-.37-.06-.1-.14-.19-.25-.26-.09-.06-.19-.12-.28-.14-.14-.06-.26-.06-.34-.06h-.12l-.28.34.03.12s.02.09.04.14c-.12-.07-.23-.07-.3-.07-.2,0-.33.19-.46.4-.15.24-.27.48-.38.71l-.84,1.8c-.12.27-.24.49-.35.67-.04.07-.07.11-.09.13-.03-.01-.06-.03-.12-.06-.18-.1-.34-.14-.5-.14h-.22c-.09.02-.17.06-.25.11l-.16.11ZM24.4,49.63l.28-1.43c.02-.1.04-.2.06-.29-.02.59-.13,1.17-.32,1.75-.02.05-.03.1-.05.14.01-.06.02-.12.03-.18ZM24.46,42.98l-.1.56c-.05.25-.09.49-.15.71-.05.27-.12.53-.19.74-.02.06-.03.1-.05.14-.08-.05-.16-.11-.27-.18-.09-.05-.15-.11-.21-.16,0,0,0,0,0,0,.02-.04.04-.09.07-.17.04-.09.09-.18.14-.29.05-.11.11-.23.17-.35l.12-.24c.09-.17.18-.36.28-.55.08-.16.16-.31.23-.45-.01.08-.03.16-.04.25Z"/>
    <path class="st0" d="M26.68,50.74v.08h.26v-.03c.3.03.59-.01.86-.15.26-.13.5-.32.73-.58.2-.23.41-.5.6-.81l.15-.25c.13-.21.25-.42.37-.64.08-.16.17-.31.25-.45l.1-.18c-.04.2-.06.41-.06.64,0,.16.02.3.05.44.04.16.09.29.16.41.09.15.2.26.31.33.24.17.64.23.97,0,.13-.09.23-.19.32-.3.09-.11.17-.22.24-.32.08-.12.13-.22.17-.3.33-.63.65-1.25.96-1.86.32-.61.65-1.23,1-1.85.05-.09.11-.19.17-.31.08-.14.17-.31.28-.5.2-.35.41-.72.62-1.1.21-.38.42-.75.62-1.1.2-.35.35-.62.48-.82l.13-.2c.06-.11.09-.22.09-.35,0-.15-.05-.3-.14-.42-.11-.18-.28-.28-.47-.28-.11,0-.22.06-.29.16-.02.04-.05.09-.08.14l-.03.08s-.02.06-.04.11v.04c-.32.56-.61,1.05-.93,1.5-.36.53-.68,1.05-.97,1.58-.1.17-.22.39-.36.66-.09.17-.18.33-.28.51l-.36.66c-.11.21-.23.42-.35.65-.11.21-.22.41-.33.6l-.18.31c-.05.1-.11.19-.16.28.03-.14.06-.29.09-.44l.05-.28c.04-.2.07-.38.1-.55l.06-.32c.03-.16.06-.3.07-.41.03-.19.04-.33.04-.39,0-.12-.04-.24-.13-.34-.06-.08-.14-.14-.24-.2-.09-.05-.19-.09-.26-.11-.12-.04-.22-.04-.28-.04-.21,0-.3.23-.32.29-.04.08-.08.17-.11.28l-.04.11c-.04.12-.08.24-.13.36-.04.11-.07.18-.1.22-.13.21-.3.47-.51.78l-.44.66c-.17.26-.35.53-.54.8-.29.42-.57.82-.85,1.18-.03.03-.05.07-.08.1.04-.16.09-.31.14-.48.16-.52.32-1.05.47-1.59.15-.53.29-1.06.41-1.55.12-.51.19-.95.19-1.31,0-.41-.12-.75-.35-1-.25-.28-.58-.43-.99-.43-.12,0-.25.04-.34.11-.11.09-.17.22-.17.36,0,.12.05.23.15.34l.08.07s.06.05.09.09c.05.05.1.1.14.16.02.03.03.06.03.11,0,.1-.02.29-.11.65-.08.31-.17.64-.29,1.03l-.06.19c-.1.33-.2.66-.32,1.01-.1.31-.2.62-.29.91l-.1.32c-.11.39-.21.76-.29,1.09-.08.32-.12.61-.12.85,0,.4.08.67.23.83.07.08.14.14.22.18Z"/>
    <path class="st0" d="M16.88,58.07c0-.18-.06-.33-.16-.45-.09-.1-.2-.19-.33-.25-.13-.06-.26-.11-.35-.12-.15-.05-.29-.05-.39-.05-.23,0-.47.05-.72.15-.07.03-.14.06-.21.07,0-.02,0-.04.01-.06l.03-.1c.03-.11.06-.22.1-.32.05-.15.1-.3.16-.52.04-.14.07-.27.09-.41.02-.17.07-.3.14-.41.04-.06.1-.11.18-.15.09-.04.21-.06.32-.06h.52c.26,0,.51.02.81.06.26.03.47.12.66.27.03.02.07.05.13.13.11.13.25.2.39.2.19,0,.3-.1.34-.17.09-.1.13-.21.13-.33,0-.17-.07-.42-.43-.65-.25-.15-.5-.27-.77-.35-.33-.1-.6-.16-.83-.2-.26-.05-.48-.07-.64-.07s-.37.02-.62.06c-.25.04-.52.1-.81.17-.3.07-.58.16-.89.27-.28.1-.56.22-.84.37-.27.14-.48.3-.64.48-.2.21-.3.43-.3.67,0,.16.06.3.19.45.16.18.33.22.45.22.15,0,.27-.12.39-.25.09-.1.2-.22.33-.35.1-.11.23-.22.4-.33.03-.02.06-.04.1-.06-.01.08-.04.18-.08.31-.08.26-.17.53-.26.8-.11.27-.21.54-.33.77-.14.28-.22.41-.25.44-.12.12-.18.27-.18.44,0,.1.03.21.08.31.01.03.02.06.02.09,0,.13-.03.3-.09.52-.07.23-.15.48-.26.81-.1.3-.21.61-.33.93-.06.17-.12.33-.17.48-.05.16-.11.31-.16.46-.1.29-.18.55-.27.84-.07.25-.11.47-.11.65,0,.19.08.38.23.53.09.09.19.15.3.19v.05h.25c.25,0,.35-.16.37-.23.02-.05.04-.11.07-.18l.03-.11c.03-.11.08-.28.15-.49.09-.29.19-.64.3-1.03l.37-1.22c.14-.43.26-.82.37-1.19.11-.36.21-.66.3-.91.06-.17.1-.26.11-.3.16-.06.31-.12.45-.17l.08-.03c.14-.06.32-.12.5-.16.16-.04.33-.08.53-.1.16-.03.36-.03.6-.03.28,0,.41-.19.41-.37Z"/>
    <path class="st0" d="M22.8,56.84c.06-.17.13-.35.17-.52.05-.18.08-.37.08-.56,0-.16-.05-.29-.1-.39-.05-.1-.13-.2-.22-.29-.09-.09-.19-.16-.32-.21-.28-.12-.6-.11-.87.09-.13.09-.26.19-.39.31l-.34.31c-.06.05-.1.08-.13.1h-.18c-.12-.01-.22.01-.36.08-.06.03-.12.06-.17.09-.48.33-.94.71-1.36,1.14-.44.43-.85.92-1.2,1.44-.35.52-.63,1.06-.86,1.65-.19.5-.29,1-.32,1.52v.25s.01.02.01.02c0,.2.04.43.11.69.07.25.17.48.3.69.13.21.3.39.5.54.21.16.47.24.76.24.24,0,.46-.05.63-.14.16-.08.33-.18.48-.31.18-.13.32-.28.45-.41l.36-.39c.35-.37.64-.75.9-1.19.23-.4.43-.8.62-1.23.18-.42.34-.84.51-1.28.13-.38.3-.79.52-1.28.06-.14.13-.28.2-.44.08-.17.16-.34.22-.51ZM17.54,62.85c-.04-.12-.06-.21-.06-.32,0-.12,0-.22,0-.31h-.02c0-.37.07-.77.21-1.21.16-.49.34-.9.55-1.27.24-.43.51-.81.78-1.14.11-.13.22-.25.33-.36-.04.19-.06.38-.06.56,0,.12.01.26.03.44.03.2.06.38.11.54.06.2.13.36.22.5.09.15.21.26.36.32-.03.06-.07.13-.11.2-.08.16-.2.35-.36.57-.15.21-.31.42-.47.64-.16.21-.33.39-.5.57-.14.15-.3.28-.46.4-.22.15-.37.13-.4.09-.06-.08-.1-.15-.13-.24ZM21.68,56.53c-.02.07-.05.14-.07.21l-.04.12c-.09.27-.19.56-.31.87l-.19.5c-.07.18-.14.36-.21.54-.12.32-.24.59-.35.84-.01-.04-.02-.09-.03-.13l-.02-.07s0-.02,0-.03v-.07c0-.3.05-.61.15-.95.09-.32.23-.62.4-.91.17-.29.36-.56.58-.82.03-.04.07-.07.1-.11Z"/>
    <path class="st0" d="M30.81,63.24c-.14,0-.26.08-.32.21-.02.03-.03.07-.06.16,0,.01-.01.03-.02.05-.07-.01-.17-.06-.34-.17-.21-.13-.43-.31-.66-.51-.28-.26-.51-.49-.73-.72-.24-.25-.45-.5-.66-.77-.18-.23-.34-.47-.47-.69-.13-.22-.15-.33-.16-.34.01-.02.06-.07.24-.17.25-.13.54-.27.9-.42.37-.16.76-.33,1.19-.52.41-.17.81-.38,1.22-.64.39-.23.72-.5.98-.79.29-.31.44-.67.44-1.05,0-.34-.11-.63-.34-.87-.2-.21-.44-.38-.73-.52-.31-.13-.59-.22-.86-.27-.74-.13-1.07-.1-1.4-.03-.2.04-.39.08-.58.12l-.2.05c-.11.03-.22.05-.32.07,0,0,0,0-.01,0,.03-.08.05-.18.05-.29,0-.09-.03-.18-.09-.28-.03-.05-.08-.11-.13-.18-.06-.07-.13-.13-.21-.18-.1-.06-.19-.09-.28-.09-.13,0-.37.04-.51.35-.06.14-.13.3-.19.48-.06.16-.12.33-.2.5-.06.12-.14.21-.23.25-.06.02-.15.06-.27.12l-.27.13c-.14.06-.29.13-.45.21-.22.11-.45.23-.69.36l-.14.08c-.18.1-.36.2-.51.3-.18.11-.35.23-.5.36-.19.15-.29.3-.29.46,0,.08.03.17.08.25.04.08.09.15.14.2.05.07.1.12.2.19.13.08.32.13.51,0,.03-.02.06-.04.06-.05l.53-.38c.16-.11.32-.22.5-.33.19-.12.37-.22.55-.31-.03.07-.06.15-.1.24l-.06.14c-.11.24-.22.5-.35.8-.16.36-.33.74-.52,1.16-.18.41-.37.83-.56,1.25-.18.42-.36.82-.54,1.22-.12.27-.23.51-.33.75l-.15.34c-.13.32-.24.6-.32.82-.1.28-.14.4-.14.5,0,.18.03.34.1.47.09.2.29.32.54.32.23,0,.37-.23.51-.48.13-.24.27-.53.44-.93.16-.37.33-.78.51-1.23.12-.31.25-.61.37-.9l.16-.38c.17-.41.33-.76.48-1.08.05-.11.1-.2.14-.29.1.16.2.33.31.52.2.33.41.68.64,1.02.25.38.52.74.76,1.03.3.37.58.66.87.91.3.26.62.48.99.66.36.17.73.25,1.12.25.22,0,.44-.09.62-.26.18-.17.28-.39.28-.63,0-.34-.21-.56-.55-.56ZM28.24,58.58l-.31.16c-.25.13-.5.25-.75.36-.15.07-.29.12-.41.17,0,0-.01-.02-.02-.03-.05-.08-.08-.16-.12-.24-.03-.06-.05-.13-.07-.18l-.02-.06s-.02-.06-.02-.09l.05-.13c.09-.2.17-.4.25-.6.05-.13.1-.25.15-.38.05-.13.11-.26.16-.39.04-.09.09-.18.14-.23.04-.04.13-.09.23-.12.4-.11.8-.21,1.22-.3.31-.07.63-.11.96-.12h.25c.07,0,.2,0,.37.02.15,0,.33.04.5.08.18.04.31.08.42.15.03.02.07.04.07.07,0,.03-.04.12-.18.24-.17.15-.36.29-.56.41-.22.14-.45.25-.67.36l-.09.04c-.19.09-.33.16-.42.21-.19.09-.41.2-.67.35-.15.08-.31.17-.46.25Z"/>
    <path class="st0" d="M37.4,60.23l-.09-.02-.21.12-.07.05c-.13.15-.29.3-.48.45-.23.19-.48.4-.77.61-.29.22-.59.45-.93.68-.32.23-.62.43-.92.62-.26.17-.52.32-.75.44-.3.14-.38.15-.39.15-.06,0-.1-.02-.14-.08-.06-.06-.1-.15-.15-.29-.04-.11-.07-.24-.09-.4-.02-.15-.02-.26-.02-.35,0-.45.11-.94.32-1.48.23-.56.5-1.08.82-1.59.35-.55.7-1.04,1.08-1.48,0,0,0,0,.01-.01-.05.15-.07.3-.07.45s.03.3.1.47c.05.13.19.35.55.35.13,0,.24-.09.37-.3.09-.14.19-.3.3-.51l.05-.09c.1-.18.2-.36.3-.57l.32-.69c.07-.17.14-.32.2-.46l.06-.14c.05-.13.12-.32.12-.46,0-.19-.09-.36-.24-.49-.24-.19-.55-.24-.76-.07-.13-.17-.35-.2-.54-.11-.08.03-.14.07-.16.09-.43.33-.89.77-1.36,1.32-.44.51-.87,1.09-1.25,1.72-.37.59-.68,1.24-.93,1.9-.21.57-.33,1.12-.36,1.63h-.05v.25c0,.19.03.41.09.67.05.25.14.49.26.72.12.22.27.42.47.59.2.18.46.27.75.27.2,0,.47-.09.78-.26.23-.13.59-.33.97-.6.32-.22.67-.47,1.06-.78.36-.28.7-.54.99-.8.29-.25.54-.47.73-.65.33-.32.36-.4.36-.5,0-.07-.02-.31-.33-.37Z"/>
    <path class="st0" d="M43.69,55.32c-.04-.12-.1-.29-.2-.41-.11-.17-.25-.27-.36-.34-.14-.09-.32-.14-.5-.14-.37,0-.76.11-1.18.33-.39.21-.75.47-1.09.82-.34.35-.61.71-.81,1.08-.22.41-.33.8-.33,1.18,0,.17.02.32.07.44.04.1.09.2.15.27.03.04.06.07.1.11-.32.29-.6.59-.84.88-.26.31-.48.64-.66.98-.17.34-.31.71-.4,1.09-.09.38-.14.8-.14,1.3l.02.12h0c.01.38.1.7.26.95.19.29.55.45,1.06.45.22,0,.48-.07.79-.2.33-.14.65-.3.94-.47.32-.19.66-.41.99-.63.32-.23.62-.45.88-.66.24-.19.46-.39.65-.58.23-.23.32-.39.32-.54,0-.22-.16-.36-.21-.41-.25-.22-.51-.25-.91.1l-.11.09c-.13.11-.28.25-.45.4l-.28.24c-.14.12-.29.26-.45.39-.25.21-.52.43-.81.62-.25.16-.55.34-.86.47-.28.12-.53.18-.82.18-.04-.04-.04-.05-.05-.06-.02-.06-.03-.11-.03-.15v-.23c0-.43.11-.89.35-1.4.26-.54.56-1,.92-1.41.37-.42.79-.78,1.26-1.07.35-.22.71-.35,1.09-.41-.01.05-.02.1-.02.15,0,.16.08.28.21.34.11.07.21.07.26.07.22,0,.41-.1.55-.28.14-.16.21-.35.21-.54,0-.31-.12-.57-.34-.75-.35-.29-.85-.32-1.34-.15-.18.06-.34.12-.51.2-.14.06-.28.11-.47.18-.13.05-.26.07-.39.07-.02,0-.03,0-.09-.09,0-.19.1-.43.28-.69.19-.27.43-.52.73-.78.29-.24.6-.45.91-.61.25-.13.47-.21.66-.23,0,.04,0,.08-.02.12-.03.1-.03.18-.03.23,0,.15.04.29.14.43.12.15.27.23.45.23.15,0,.26-.11.3-.14.06-.06.11-.15.16-.29.02-.05.04-.12.05-.2.02-.09.02-.16.02-.2,0-.15-.02-.3-.07-.45Z"/>
  </g>
  <path class="st1" d="M68.95,26.06c.95,3.61,4.18,5.72,8.68,5.72,4.81,0,6.68-2.03,6.68-4.99s-1.58-4.44-7.9-5.98c-10.22-2.49-12.25-5.63-12.25-10.39S67.77.49,77.03.49s12.94,5.31,13.36,10.13h-6.46c-.46-2.06-2-5.06-7.19-5.06-4.55,0-5.92,2.16-5.92,4.31,0,2.43,1.36,3.63,7.61,5.12,10.76,2.54,12.78,6.16,12.78,11.31,0,6.04-4.75,10.64-13.79,10.64s-13.73-4.66-14.59-10.88c0,0,6.12,0,6.12,0Z"/>
</svg>